<mxfile host="app.diagrams.net" modified="2023-08-11T06:56:13.046Z" agent="Mozilla/5.0 (Windows NT 10.0; Win64; x64) AppleWebKit/537.36 (KHTML, like Gecko) Chrome/115.0.0.0 Safari/537.36 Edg/115.0.1901.200" etag="rj3ivxv_ggciEmLjgaUU" version="21.6.8" type="device">
  <diagram id="kqgTbqow6zL25VhIztb5" name="第 1 页">
    <mxGraphModel dx="996" dy="2212" grid="0" gridSize="17" guides="1" tooltips="1" connect="1" arrows="1" fold="1" page="1" pageScale="1" pageWidth="1169" pageHeight="1654" math="0" shadow="0">
      <root>
        <mxCell id="0" />
        <mxCell id="1" parent="0" />
        <mxCell id="OuQsD5aO7t_rfvwNeKst-161" style="edgeStyle=orthogonalEdgeStyle;rounded=1;orthogonalLoop=1;jettySize=auto;html=1;exitX=1;exitY=0.5;exitDx=0;exitDy=0;entryX=0.363;entryY=-0.004;entryDx=0;entryDy=0;entryPerimeter=0;fontFamily=Lucida Console;fontSize=18;elbow=vertical;" parent="1" source="OuQsD5aO7t_rfvwNeKst-1" target="OuQsD5aO7t_rfvwNeKst-159" edge="1">
          <mxGeometry relative="1" as="geometry" />
        </mxCell>
        <mxCell id="OuQsD5aO7t_rfvwNeKst-162" style="edgeStyle=orthogonalEdgeStyle;rounded=1;orthogonalLoop=1;jettySize=auto;html=1;exitX=1;exitY=0.5;exitDx=0;exitDy=0;entryX=0.25;entryY=0;entryDx=0;entryDy=0;fontFamily=Lucida Console;fontSize=18;elbow=vertical;" parent="1" source="OuQsD5aO7t_rfvwNeKst-1" target="OuQsD5aO7t_rfvwNeKst-159" edge="1">
          <mxGeometry relative="1" as="geometry" />
        </mxCell>
        <mxCell id="OuQsD5aO7t_rfvwNeKst-165" style="edgeStyle=orthogonalEdgeStyle;rounded=0;orthogonalLoop=1;jettySize=auto;html=1;exitX=1;exitY=0.25;exitDx=0;exitDy=0;entryX=0;entryY=0.25;entryDx=0;entryDy=0;fontFamily=Lucida Console;fontSize=18;elbow=vertical;" parent="1" source="OuQsD5aO7t_rfvwNeKst-1" target="OuQsD5aO7t_rfvwNeKst-4" edge="1">
          <mxGeometry relative="1" as="geometry" />
        </mxCell>
        <mxCell id="OuQsD5aO7t_rfvwNeKst-1" value="RNN" style="rounded=1;whiteSpace=wrap;html=1;fillColor=#dae8fc;strokeColor=#6c8ebf;" parent="1" vertex="1">
          <mxGeometry x="234" y="-378" width="120" height="26" as="geometry" />
        </mxCell>
        <mxCell id="OuQsD5aO7t_rfvwNeKst-11" style="edgeStyle=orthogonalEdgeStyle;rounded=1;orthogonalLoop=1;jettySize=auto;html=1;exitX=0.5;exitY=0;exitDx=0;exitDy=0;entryX=0.5;entryY=1;entryDx=0;entryDy=0;" parent="1" source="OuQsD5aO7t_rfvwNeKst-3" target="OuQsD5aO7t_rfvwNeKst-1" edge="1">
          <mxGeometry relative="1" as="geometry" />
        </mxCell>
        <mxCell id="OuQsD5aO7t_rfvwNeKst-3" value="Embedding" style="rounded=1;whiteSpace=wrap;html=1;" parent="1" vertex="1">
          <mxGeometry x="234" y="-314" width="120" height="26" as="geometry" />
        </mxCell>
        <mxCell id="OuQsD5aO7t_rfvwNeKst-13" style="edgeStyle=orthogonalEdgeStyle;rounded=1;orthogonalLoop=1;jettySize=auto;html=1;exitX=0.5;exitY=0;exitDx=0;exitDy=0;entryX=0.5;entryY=1;entryDx=0;entryDy=0;" parent="1" source="OuQsD5aO7t_rfvwNeKst-4" target="OuQsD5aO7t_rfvwNeKst-6" edge="1">
          <mxGeometry relative="1" as="geometry" />
        </mxCell>
        <mxCell id="OuQsD5aO7t_rfvwNeKst-163" style="edgeStyle=orthogonalEdgeStyle;rounded=1;orthogonalLoop=1;jettySize=auto;html=1;exitX=0.5;exitY=0;exitDx=0;exitDy=0;fontFamily=Lucida Console;fontSize=18;elbow=vertical;" parent="1" source="OuQsD5aO7t_rfvwNeKst-4" target="OuQsD5aO7t_rfvwNeKst-159" edge="1">
          <mxGeometry relative="1" as="geometry" />
        </mxCell>
        <mxCell id="OuQsD5aO7t_rfvwNeKst-4" value="RNN" style="rounded=1;whiteSpace=wrap;html=1;fillColor=#dae8fc;strokeColor=#6c8ebf;" parent="1" vertex="1">
          <mxGeometry x="476" y="-378" width="120" height="26" as="geometry" />
        </mxCell>
        <mxCell id="OuQsD5aO7t_rfvwNeKst-12" style="edgeStyle=orthogonalEdgeStyle;rounded=1;orthogonalLoop=1;jettySize=auto;html=1;exitX=0.5;exitY=0;exitDx=0;exitDy=0;entryX=0.5;entryY=1;entryDx=0;entryDy=0;" parent="1" source="OuQsD5aO7t_rfvwNeKst-5" target="OuQsD5aO7t_rfvwNeKst-4" edge="1">
          <mxGeometry relative="1" as="geometry" />
        </mxCell>
        <mxCell id="OuQsD5aO7t_rfvwNeKst-5" value="Embedding" style="rounded=1;whiteSpace=wrap;html=1;" parent="1" vertex="1">
          <mxGeometry x="476" y="-314" width="120" height="26" as="geometry" />
        </mxCell>
        <mxCell id="OuQsD5aO7t_rfvwNeKst-6" value="Dense" style="rounded=1;whiteSpace=wrap;html=1;" parent="1" vertex="1">
          <mxGeometry x="476" y="-442" width="120" height="26" as="geometry" />
        </mxCell>
        <mxCell id="OuQsD5aO7t_rfvwNeKst-7" value="n" style="text;html=1;align=center;verticalAlign=middle;resizable=0;points=[];autosize=1;strokeColor=none;fillColor=none;rounded=1;" parent="1" vertex="1">
          <mxGeometry x="190" y="-378" width="16" height="18" as="geometry" />
        </mxCell>
        <mxCell id="OuQsD5aO7t_rfvwNeKst-9" value="n" style="text;html=1;align=center;verticalAlign=middle;resizable=0;points=[];autosize=1;strokeColor=none;fillColor=none;rounded=1;" parent="1" vertex="1">
          <mxGeometry x="614" y="-377" width="16" height="18" as="geometry" />
        </mxCell>
        <mxCell id="OuQsD5aO7t_rfvwNeKst-14" value="" style="endArrow=classic;html=1;rounded=1;" parent="1" edge="1">
          <mxGeometry width="50" height="50" relative="1" as="geometry">
            <mxPoint x="293.5" y="-215" as="sourcePoint" />
            <mxPoint x="293.5" y="-289" as="targetPoint" />
          </mxGeometry>
        </mxCell>
        <mxCell id="OuQsD5aO7t_rfvwNeKst-15" value="sources" style="text;html=1;align=center;verticalAlign=middle;resizable=0;points=[];autosize=1;strokeColor=none;fillColor=none;rounded=1;" parent="1" vertex="1">
          <mxGeometry x="290" y="-254" width="52" height="18" as="geometry" />
        </mxCell>
        <mxCell id="OuQsD5aO7t_rfvwNeKst-16" value="" style="endArrow=classic;html=1;rounded=1;" parent="1" edge="1">
          <mxGeometry width="50" height="50" relative="1" as="geometry">
            <mxPoint x="535.5" y="-214" as="sourcePoint" />
            <mxPoint x="535.5" y="-288" as="targetPoint" />
          </mxGeometry>
        </mxCell>
        <mxCell id="OuQsD5aO7t_rfvwNeKst-17" value="targets" style="text;html=1;align=center;verticalAlign=middle;resizable=0;points=[];autosize=1;strokeColor=none;fillColor=none;rounded=1;" parent="1" vertex="1">
          <mxGeometry x="535" y="-253" width="47" height="18" as="geometry" />
        </mxCell>
        <mxCell id="OuQsD5aO7t_rfvwNeKst-25" style="edgeStyle=orthogonalEdgeStyle;rounded=1;orthogonalLoop=1;jettySize=auto;html=1;exitX=1;exitY=0.5;exitDx=0;exitDy=0;" parent="1" source="OuQsD5aO7t_rfvwNeKst-20" target="OuQsD5aO7t_rfvwNeKst-24" edge="1">
          <mxGeometry relative="1" as="geometry" />
        </mxCell>
        <mxCell id="OuQsD5aO7t_rfvwNeKst-20" value="Encoder" style="rounded=1;whiteSpace=wrap;html=1;" parent="1" vertex="1">
          <mxGeometry x="272" y="-135" width="120" height="26" as="geometry" />
        </mxCell>
        <mxCell id="OuQsD5aO7t_rfvwNeKst-21" value="Encoder" style="text;html=1;align=center;verticalAlign=middle;resizable=0;points=[];autosize=1;strokeColor=none;fillColor=none;rounded=1;" parent="1" vertex="1">
          <mxGeometry x="265" y="-423" width="55" height="18" as="geometry" />
        </mxCell>
        <mxCell id="OuQsD5aO7t_rfvwNeKst-23" value="Decoder" style="text;html=1;align=center;verticalAlign=middle;resizable=0;points=[];autosize=1;strokeColor=none;fillColor=none;rounded=1;" parent="1" vertex="1">
          <mxGeometry x="508" y="-477" width="56" height="18" as="geometry" />
        </mxCell>
        <mxCell id="OuQsD5aO7t_rfvwNeKst-24" value="Decoder" style="rounded=1;whiteSpace=wrap;html=1;" parent="1" vertex="1">
          <mxGeometry x="472" y="-135" width="120" height="26" as="geometry" />
        </mxCell>
        <mxCell id="OuQsD5aO7t_rfvwNeKst-29" value="" style="edgeStyle=orthogonalEdgeStyle;rounded=1;orthogonalLoop=1;jettySize=auto;html=1;" parent="1" source="OuQsD5aO7t_rfvwNeKst-28" target="OuQsD5aO7t_rfvwNeKst-20" edge="1">
          <mxGeometry relative="1" as="geometry" />
        </mxCell>
        <mxCell id="OuQsD5aO7t_rfvwNeKst-28" value="My&lt;br&gt;name&lt;br&gt;is&lt;br&gt;Tom" style="text;html=1;align=center;verticalAlign=middle;resizable=0;points=[];autosize=1;strokeColor=#6c8ebf;fillColor=#dae8fc;rounded=1;" parent="1" vertex="1">
          <mxGeometry x="312" y="-78" width="40" height="60" as="geometry" />
        </mxCell>
        <mxCell id="OuQsD5aO7t_rfvwNeKst-31" value="" style="edgeStyle=orthogonalEdgeStyle;rounded=1;orthogonalLoop=1;jettySize=auto;html=1;" parent="1" source="OuQsD5aO7t_rfvwNeKst-30" target="OuQsD5aO7t_rfvwNeKst-24" edge="1">
          <mxGeometry relative="1" as="geometry" />
        </mxCell>
        <mxCell id="OuQsD5aO7t_rfvwNeKst-30" value="&amp;lt;bos&amp;gt;&lt;br&gt;我的&lt;br&gt;名字&lt;br&gt;是&lt;br&gt;汤姆&lt;br&gt;&amp;lt;eos&amp;gt;" style="text;html=1;align=center;verticalAlign=middle;resizable=0;points=[];autosize=1;strokeColor=#6c8ebf;fillColor=#dae8fc;rounded=1;" parent="1" vertex="1">
          <mxGeometry x="510" y="-85" width="44" height="88" as="geometry" />
        </mxCell>
        <mxCell id="OuQsD5aO7t_rfvwNeKst-32" style="edgeStyle=orthogonalEdgeStyle;rounded=1;orthogonalLoop=1;jettySize=auto;html=1;exitX=1;exitY=0.5;exitDx=0;exitDy=0;" parent="1" source="OuQsD5aO7t_rfvwNeKst-33" target="OuQsD5aO7t_rfvwNeKst-34" edge="1">
          <mxGeometry relative="1" as="geometry" />
        </mxCell>
        <mxCell id="OuQsD5aO7t_rfvwNeKst-33" value="Encoder" style="rounded=1;whiteSpace=wrap;html=1;" parent="1" vertex="1">
          <mxGeometry x="272" y="40" width="120" height="26" as="geometry" />
        </mxCell>
        <mxCell id="OuQsD5aO7t_rfvwNeKst-39" style="edgeStyle=orthogonalEdgeStyle;rounded=1;orthogonalLoop=1;jettySize=auto;html=1;exitX=1;exitY=0.5;exitDx=0;exitDy=0;entryX=0.991;entryY=0.644;entryDx=0;entryDy=0;entryPerimeter=0;" parent="1" source="OuQsD5aO7t_rfvwNeKst-34" target="OuQsD5aO7t_rfvwNeKst-38" edge="1">
          <mxGeometry relative="1" as="geometry">
            <Array as="points">
              <mxPoint x="602" y="53" />
              <mxPoint x="602" y="137" />
            </Array>
          </mxGeometry>
        </mxCell>
        <mxCell id="OuQsD5aO7t_rfvwNeKst-34" value="Decoder" style="rounded=1;whiteSpace=wrap;html=1;" parent="1" vertex="1">
          <mxGeometry x="462" y="40" width="120" height="26" as="geometry" />
        </mxCell>
        <mxCell id="OuQsD5aO7t_rfvwNeKst-35" value="" style="edgeStyle=orthogonalEdgeStyle;rounded=1;orthogonalLoop=1;jettySize=auto;html=1;" parent="1" source="OuQsD5aO7t_rfvwNeKst-36" target="OuQsD5aO7t_rfvwNeKst-33" edge="1">
          <mxGeometry relative="1" as="geometry" />
        </mxCell>
        <mxCell id="OuQsD5aO7t_rfvwNeKst-36" value="My&lt;br&gt;name&lt;br&gt;is&lt;br&gt;Tom" style="text;html=1;align=center;verticalAlign=middle;resizable=0;points=[];autosize=1;strokeColor=#6c8ebf;fillColor=#dae8fc;rounded=1;" parent="1" vertex="1">
          <mxGeometry x="312" y="97" width="40" height="60" as="geometry" />
        </mxCell>
        <mxCell id="OuQsD5aO7t_rfvwNeKst-37" value="" style="edgeStyle=orthogonalEdgeStyle;rounded=1;orthogonalLoop=1;jettySize=auto;html=1;" parent="1" source="OuQsD5aO7t_rfvwNeKst-38" target="OuQsD5aO7t_rfvwNeKst-34" edge="1">
          <mxGeometry relative="1" as="geometry" />
        </mxCell>
        <mxCell id="OuQsD5aO7t_rfvwNeKst-38" value="&amp;lt;bos&amp;gt;" style="text;html=1;align=center;verticalAlign=middle;resizable=0;points=[];autosize=1;strokeColor=#6c8ebf;fillColor=#dae8fc;rounded=1;" parent="1" vertex="1">
          <mxGeometry x="500" y="125" width="44" height="18" as="geometry" />
        </mxCell>
        <mxCell id="OuQsD5aO7t_rfvwNeKst-40" value="预测下一个词" style="text;html=1;align=center;verticalAlign=middle;resizable=0;points=[];autosize=1;strokeColor=none;fillColor=none;rounded=1;" parent="1" vertex="1">
          <mxGeometry x="584" y="82" width="82" height="18" as="geometry" />
        </mxCell>
        <mxCell id="OuQsD5aO7t_rfvwNeKst-60" style="edgeStyle=orthogonalEdgeStyle;rounded=1;orthogonalLoop=1;jettySize=auto;html=1;exitX=1;exitY=0.5;exitDx=0;exitDy=0;entryX=-0.005;entryY=0.068;entryDx=0;entryDy=0;entryPerimeter=0;" parent="1" source="OuQsD5aO7t_rfvwNeKst-41" target="OuQsD5aO7t_rfvwNeKst-53" edge="1">
          <mxGeometry relative="1" as="geometry" />
        </mxCell>
        <mxCell id="OuQsD5aO7t_rfvwNeKst-41" value="" style="rounded=1;whiteSpace=wrap;html=1;fillColor=#b1ddf0;strokeColor=#10739e;" parent="1" vertex="1">
          <mxGeometry x="283" y="234" width="120" height="26" as="geometry" />
        </mxCell>
        <mxCell id="OuQsD5aO7t_rfvwNeKst-43" value="Keys" style="text;html=1;align=center;verticalAlign=middle;resizable=0;points=[];autosize=1;strokeColor=none;fillColor=none;rounded=1;" parent="1" vertex="1">
          <mxGeometry x="315" y="198" width="36" height="18" as="geometry" />
        </mxCell>
        <mxCell id="OuQsD5aO7t_rfvwNeKst-61" style="edgeStyle=orthogonalEdgeStyle;rounded=1;orthogonalLoop=1;jettySize=auto;html=1;exitX=1;exitY=0.5;exitDx=0;exitDy=0;" parent="1" source="OuQsD5aO7t_rfvwNeKst-44" edge="1">
          <mxGeometry relative="1" as="geometry">
            <mxPoint x="443.60003662109375" y="291" as="targetPoint" />
          </mxGeometry>
        </mxCell>
        <mxCell id="OuQsD5aO7t_rfvwNeKst-44" value="" style="rounded=1;whiteSpace=wrap;html=1;fillColor=#b1ddf0;strokeColor=#10739e;" parent="1" vertex="1">
          <mxGeometry x="283" y="278" width="120" height="26" as="geometry" />
        </mxCell>
        <mxCell id="OuQsD5aO7t_rfvwNeKst-62" style="edgeStyle=orthogonalEdgeStyle;rounded=1;orthogonalLoop=1;jettySize=auto;html=1;exitX=1;exitY=0.5;exitDx=0;exitDy=0;entryX=0;entryY=0.5;entryDx=0;entryDy=0;" parent="1" source="OuQsD5aO7t_rfvwNeKst-45" target="OuQsD5aO7t_rfvwNeKst-53" edge="1">
          <mxGeometry relative="1" as="geometry" />
        </mxCell>
        <mxCell id="OuQsD5aO7t_rfvwNeKst-45" value="" style="rounded=1;whiteSpace=wrap;html=1;fillColor=#b1ddf0;strokeColor=#10739e;" parent="1" vertex="1">
          <mxGeometry x="283" y="322" width="120" height="26" as="geometry" />
        </mxCell>
        <mxCell id="OuQsD5aO7t_rfvwNeKst-64" style="edgeStyle=orthogonalEdgeStyle;rounded=1;orthogonalLoop=1;jettySize=auto;html=1;exitX=1;exitY=0.5;exitDx=0;exitDy=0;entryX=0.026;entryY=0.722;entryDx=0;entryDy=0;entryPerimeter=0;" parent="1" source="OuQsD5aO7t_rfvwNeKst-46" target="OuQsD5aO7t_rfvwNeKst-53" edge="1">
          <mxGeometry relative="1" as="geometry" />
        </mxCell>
        <mxCell id="OuQsD5aO7t_rfvwNeKst-46" value="" style="rounded=1;whiteSpace=wrap;html=1;fillColor=#b1ddf0;strokeColor=#10739e;" parent="1" vertex="1">
          <mxGeometry x="283" y="366" width="120" height="26" as="geometry" />
        </mxCell>
        <mxCell id="OuQsD5aO7t_rfvwNeKst-65" style="edgeStyle=orthogonalEdgeStyle;rounded=1;orthogonalLoop=1;jettySize=auto;html=1;exitX=1;exitY=0.5;exitDx=0;exitDy=0;entryX=0.005;entryY=0.932;entryDx=0;entryDy=0;entryPerimeter=0;" parent="1" source="OuQsD5aO7t_rfvwNeKst-47" target="OuQsD5aO7t_rfvwNeKst-53" edge="1">
          <mxGeometry relative="1" as="geometry" />
        </mxCell>
        <mxCell id="OuQsD5aO7t_rfvwNeKst-47" value="" style="rounded=1;whiteSpace=wrap;html=1;fillColor=#b1ddf0;strokeColor=#10739e;" parent="1" vertex="1">
          <mxGeometry x="283" y="410" width="120" height="26" as="geometry" />
        </mxCell>
        <mxCell id="OuQsD5aO7t_rfvwNeKst-48" value="" style="rounded=1;whiteSpace=wrap;html=1;fillColor=#dae8fc;strokeColor=#6c8ebf;" parent="1" vertex="1">
          <mxGeometry x="554" y="234" width="120" height="26" as="geometry" />
        </mxCell>
        <mxCell id="OuQsD5aO7t_rfvwNeKst-58" style="edgeStyle=orthogonalEdgeStyle;rounded=1;orthogonalLoop=1;jettySize=auto;html=1;exitX=1;exitY=0.5;exitDx=0;exitDy=0;entryX=0;entryY=0.5;entryDx=0;entryDy=0;" parent="1" source="OuQsD5aO7t_rfvwNeKst-49" target="OuQsD5aO7t_rfvwNeKst-57" edge="1">
          <mxGeometry relative="1" as="geometry" />
        </mxCell>
        <mxCell id="OuQsD5aO7t_rfvwNeKst-49" value="" style="rounded=1;whiteSpace=wrap;html=1;fillColor=#f8cecc;strokeColor=#b85450;" parent="1" vertex="1">
          <mxGeometry x="556" y="278" width="120" height="26" as="geometry" />
        </mxCell>
        <mxCell id="OuQsD5aO7t_rfvwNeKst-50" value="" style="rounded=1;whiteSpace=wrap;html=1;fillColor=#dae8fc;strokeColor=#6c8ebf;" parent="1" vertex="1">
          <mxGeometry x="556" y="322" width="120" height="26" as="geometry" />
        </mxCell>
        <mxCell id="OuQsD5aO7t_rfvwNeKst-51" value="" style="rounded=1;whiteSpace=wrap;html=1;fillColor=#dae8fc;strokeColor=#6c8ebf;" parent="1" vertex="1">
          <mxGeometry x="556" y="366" width="120" height="26" as="geometry" />
        </mxCell>
        <mxCell id="OuQsD5aO7t_rfvwNeKst-52" value="" style="rounded=1;whiteSpace=wrap;html=1;fillColor=#dae8fc;strokeColor=#6c8ebf;" parent="1" vertex="1">
          <mxGeometry x="556" y="410" width="120" height="26" as="geometry" />
        </mxCell>
        <mxCell id="OuQsD5aO7t_rfvwNeKst-53" value="attention&lt;br&gt;pooling" style="rounded=1;whiteSpace=wrap;html=1;" parent="1" vertex="1">
          <mxGeometry x="444" y="234" width="77" height="202" as="geometry" />
        </mxCell>
        <mxCell id="OuQsD5aO7t_rfvwNeKst-55" value="" style="endArrow=none;dashed=1;html=1;dashPattern=1 3;strokeWidth=2;rounded=1;entryX=0;entryY=0.5;entryDx=0;entryDy=0;exitX=1;exitY=0.5;exitDx=0;exitDy=0;" parent="1" source="OuQsD5aO7t_rfvwNeKst-53" target="OuQsD5aO7t_rfvwNeKst-49" edge="1">
          <mxGeometry width="50" height="50" relative="1" as="geometry">
            <mxPoint x="550" y="358" as="sourcePoint" />
            <mxPoint x="571" y="291" as="targetPoint" />
          </mxGeometry>
        </mxCell>
        <mxCell id="OuQsD5aO7t_rfvwNeKst-57" value="output" style="rounded=1;whiteSpace=wrap;html=1;fillColor=#f8cecc;strokeColor=#b85450;" parent="1" vertex="1">
          <mxGeometry x="720" y="410" width="120" height="26" as="geometry" />
        </mxCell>
        <mxCell id="OuQsD5aO7t_rfvwNeKst-59" value="Values" style="text;html=1;align=center;verticalAlign=middle;resizable=0;points=[];autosize=1;strokeColor=none;fillColor=none;rounded=1;" parent="1" vertex="1">
          <mxGeometry x="591" y="199" width="46" height="18" as="geometry" />
        </mxCell>
        <mxCell id="OuQsD5aO7t_rfvwNeKst-68" style="edgeStyle=orthogonalEdgeStyle;rounded=1;orthogonalLoop=1;jettySize=auto;html=1;exitX=1;exitY=0.5;exitDx=0;exitDy=0;entryX=0.5;entryY=1;entryDx=0;entryDy=0;" parent="1" source="OuQsD5aO7t_rfvwNeKst-67" target="OuQsD5aO7t_rfvwNeKst-53" edge="1">
          <mxGeometry relative="1" as="geometry" />
        </mxCell>
        <mxCell id="OuQsD5aO7t_rfvwNeKst-67" value="Query" style="rounded=1;whiteSpace=wrap;html=1;fillColor=#f8cecc;strokeColor=#b85450;" parent="1" vertex="1">
          <mxGeometry x="282" y="454" width="120" height="26" as="geometry" />
        </mxCell>
        <mxCell id="OuQsD5aO7t_rfvwNeKst-69" style="edgeStyle=orthogonalEdgeStyle;rounded=1;orthogonalLoop=1;jettySize=auto;html=1;exitX=1;exitY=0.5;exitDx=0;exitDy=0;entryX=-0.005;entryY=0.068;entryDx=0;entryDy=0;entryPerimeter=0;" parent="1" source="OuQsD5aO7t_rfvwNeKst-70" edge="1">
          <mxGeometry relative="1" as="geometry">
            <mxPoint x="436.615" y="615.7359999999999" as="targetPoint" />
          </mxGeometry>
        </mxCell>
        <mxCell id="OuQsD5aO7t_rfvwNeKst-70" value="" style="rounded=1;whiteSpace=wrap;html=1;fillColor=#b1ddf0;strokeColor=#10739e;" parent="1" vertex="1">
          <mxGeometry x="276" y="602" width="120" height="26" as="geometry" />
        </mxCell>
        <mxCell id="OuQsD5aO7t_rfvwNeKst-71" value="Keys" style="text;html=1;align=center;verticalAlign=middle;resizable=0;points=[];autosize=1;strokeColor=none;fillColor=none;rounded=1;" parent="1" vertex="1">
          <mxGeometry x="308" y="566" width="36" height="18" as="geometry" />
        </mxCell>
        <mxCell id="OuQsD5aO7t_rfvwNeKst-72" style="edgeStyle=orthogonalEdgeStyle;rounded=1;orthogonalLoop=1;jettySize=auto;html=1;exitX=1;exitY=0.5;exitDx=0;exitDy=0;" parent="1" source="OuQsD5aO7t_rfvwNeKst-73" edge="1">
          <mxGeometry relative="1" as="geometry">
            <mxPoint x="436.60003662109375" y="659" as="targetPoint" />
          </mxGeometry>
        </mxCell>
        <mxCell id="OuQsD5aO7t_rfvwNeKst-73" value="" style="rounded=1;whiteSpace=wrap;html=1;fillColor=#b1ddf0;strokeColor=#10739e;" parent="1" vertex="1">
          <mxGeometry x="276" y="646" width="120" height="26" as="geometry" />
        </mxCell>
        <mxCell id="OuQsD5aO7t_rfvwNeKst-74" style="edgeStyle=orthogonalEdgeStyle;rounded=1;orthogonalLoop=1;jettySize=auto;html=1;exitX=1;exitY=0.5;exitDx=0;exitDy=0;entryX=0;entryY=0.5;entryDx=0;entryDy=0;" parent="1" source="OuQsD5aO7t_rfvwNeKst-75" edge="1">
          <mxGeometry relative="1" as="geometry">
            <mxPoint x="437" y="703" as="targetPoint" />
          </mxGeometry>
        </mxCell>
        <mxCell id="OuQsD5aO7t_rfvwNeKst-75" value="" style="rounded=1;whiteSpace=wrap;html=1;fillColor=#b1ddf0;strokeColor=#10739e;" parent="1" vertex="1">
          <mxGeometry x="276" y="690" width="120" height="26" as="geometry" />
        </mxCell>
        <mxCell id="OuQsD5aO7t_rfvwNeKst-76" style="edgeStyle=orthogonalEdgeStyle;rounded=1;orthogonalLoop=1;jettySize=auto;html=1;exitX=1;exitY=0.5;exitDx=0;exitDy=0;entryX=0.026;entryY=0.722;entryDx=0;entryDy=0;entryPerimeter=0;" parent="1" source="OuQsD5aO7t_rfvwNeKst-77" edge="1">
          <mxGeometry relative="1" as="geometry">
            <mxPoint x="439.00199999999995" y="747.844" as="targetPoint" />
          </mxGeometry>
        </mxCell>
        <mxCell id="OuQsD5aO7t_rfvwNeKst-77" value="" style="rounded=1;whiteSpace=wrap;html=1;fillColor=#b1ddf0;strokeColor=#10739e;" parent="1" vertex="1">
          <mxGeometry x="276" y="734" width="120" height="26" as="geometry" />
        </mxCell>
        <mxCell id="OuQsD5aO7t_rfvwNeKst-78" style="edgeStyle=orthogonalEdgeStyle;rounded=1;orthogonalLoop=1;jettySize=auto;html=1;exitX=1;exitY=0.5;exitDx=0;exitDy=0;entryX=0.005;entryY=0.932;entryDx=0;entryDy=0;entryPerimeter=0;" parent="1" source="OuQsD5aO7t_rfvwNeKst-79" edge="1">
          <mxGeometry relative="1" as="geometry">
            <mxPoint x="437.385" y="790.2640000000001" as="targetPoint" />
          </mxGeometry>
        </mxCell>
        <mxCell id="OuQsD5aO7t_rfvwNeKst-79" value="" style="rounded=1;whiteSpace=wrap;html=1;fillColor=#b1ddf0;strokeColor=#10739e;" parent="1" vertex="1">
          <mxGeometry x="276" y="778" width="120" height="26" as="geometry" />
        </mxCell>
        <mxCell id="OuQsD5aO7t_rfvwNeKst-111" style="edgeStyle=elbowEdgeStyle;rounded=1;orthogonalLoop=1;jettySize=auto;html=1;exitX=0;exitY=0.5;exitDx=0;exitDy=0;entryX=1;entryY=0.5;entryDx=0;entryDy=0;fontFamily=Lucida Console;fontSize=14;" parent="1" source="OuQsD5aO7t_rfvwNeKst-80" target="OuQsD5aO7t_rfvwNeKst-110" edge="1">
          <mxGeometry relative="1" as="geometry" />
        </mxCell>
        <mxCell id="OuQsD5aO7t_rfvwNeKst-80" value="" style="rounded=1;whiteSpace=wrap;html=1;fillColor=#dae8fc;strokeColor=#6c8ebf;" parent="1" vertex="1">
          <mxGeometry x="671" y="602" width="120" height="26" as="geometry" />
        </mxCell>
        <mxCell id="OuQsD5aO7t_rfvwNeKst-116" style="edgeStyle=elbowEdgeStyle;rounded=1;orthogonalLoop=1;jettySize=auto;html=1;exitX=0;exitY=0.5;exitDx=0;exitDy=0;entryX=1;entryY=0.5;entryDx=0;entryDy=0;fontFamily=Lucida Console;fontSize=14;" parent="1" source="OuQsD5aO7t_rfvwNeKst-82" target="OuQsD5aO7t_rfvwNeKst-112" edge="1">
          <mxGeometry relative="1" as="geometry" />
        </mxCell>
        <mxCell id="OuQsD5aO7t_rfvwNeKst-82" value="" style="rounded=1;whiteSpace=wrap;html=1;fillColor=#dae8fc;strokeColor=#6c8ebf;" parent="1" vertex="1">
          <mxGeometry x="671" y="646" width="120" height="26" as="geometry" />
        </mxCell>
        <mxCell id="OuQsD5aO7t_rfvwNeKst-117" style="edgeStyle=elbowEdgeStyle;rounded=1;orthogonalLoop=1;jettySize=auto;html=1;exitX=0;exitY=0.5;exitDx=0;exitDy=0;entryX=1;entryY=0.5;entryDx=0;entryDy=0;fontFamily=Lucida Console;fontSize=14;" parent="1" source="OuQsD5aO7t_rfvwNeKst-83" target="OuQsD5aO7t_rfvwNeKst-115" edge="1">
          <mxGeometry relative="1" as="geometry" />
        </mxCell>
        <mxCell id="OuQsD5aO7t_rfvwNeKst-83" value="" style="rounded=1;whiteSpace=wrap;html=1;fillColor=#dae8fc;strokeColor=#6c8ebf;" parent="1" vertex="1">
          <mxGeometry x="671" y="690" width="120" height="26" as="geometry" />
        </mxCell>
        <mxCell id="OuQsD5aO7t_rfvwNeKst-120" style="edgeStyle=elbowEdgeStyle;rounded=1;orthogonalLoop=1;jettySize=auto;html=1;exitX=0;exitY=0.5;exitDx=0;exitDy=0;entryX=1;entryY=0.5;entryDx=0;entryDy=0;fontFamily=Lucida Console;fontSize=14;" parent="1" source="OuQsD5aO7t_rfvwNeKst-84" target="OuQsD5aO7t_rfvwNeKst-114" edge="1">
          <mxGeometry relative="1" as="geometry" />
        </mxCell>
        <mxCell id="OuQsD5aO7t_rfvwNeKst-84" value="" style="rounded=1;whiteSpace=wrap;html=1;fillColor=#dae8fc;strokeColor=#6c8ebf;" parent="1" vertex="1">
          <mxGeometry x="671" y="734" width="120" height="26" as="geometry" />
        </mxCell>
        <mxCell id="OuQsD5aO7t_rfvwNeKst-121" style="edgeStyle=elbowEdgeStyle;rounded=1;orthogonalLoop=1;jettySize=auto;html=1;exitX=0;exitY=0.5;exitDx=0;exitDy=0;entryX=1;entryY=0.5;entryDx=0;entryDy=0;fontFamily=Lucida Console;fontSize=14;" parent="1" source="OuQsD5aO7t_rfvwNeKst-85" target="OuQsD5aO7t_rfvwNeKst-113" edge="1">
          <mxGeometry relative="1" as="geometry" />
        </mxCell>
        <mxCell id="OuQsD5aO7t_rfvwNeKst-85" value="" style="rounded=1;whiteSpace=wrap;html=1;fillColor=#dae8fc;strokeColor=#6c8ebf;" parent="1" vertex="1">
          <mxGeometry x="671" y="778" width="120" height="26" as="geometry" />
        </mxCell>
        <mxCell id="OuQsD5aO7t_rfvwNeKst-88" value="output" style="rounded=1;whiteSpace=wrap;html=1;fillColor=#f8cecc;strokeColor=#b85450;" parent="1" vertex="1">
          <mxGeometry x="704" y="523" width="73" height="26" as="geometry" />
        </mxCell>
        <mxCell id="OuQsD5aO7t_rfvwNeKst-89" value="Values" style="text;html=1;align=center;verticalAlign=middle;resizable=0;points=[];autosize=1;strokeColor=none;fillColor=none;rounded=1;" parent="1" vertex="1">
          <mxGeometry x="708" y="566" width="46" height="18" as="geometry" />
        </mxCell>
        <mxCell id="OuQsD5aO7t_rfvwNeKst-105" style="edgeStyle=elbowEdgeStyle;rounded=1;orthogonalLoop=1;jettySize=auto;html=1;exitX=1;exitY=0.5;exitDx=0;exitDy=0;entryX=0;entryY=1;entryDx=0;entryDy=0;fontFamily=Lucida Console;fontSize=14;" parent="1" source="OuQsD5aO7t_rfvwNeKst-91" target="OuQsD5aO7t_rfvwNeKst-98" edge="1">
          <mxGeometry relative="1" as="geometry" />
        </mxCell>
        <mxCell id="OuQsD5aO7t_rfvwNeKst-106" style="edgeStyle=elbowEdgeStyle;rounded=1;orthogonalLoop=1;jettySize=auto;html=1;exitX=1;exitY=0.5;exitDx=0;exitDy=0;entryX=0;entryY=1;entryDx=0;entryDy=0;fontFamily=Lucida Console;fontSize=14;" parent="1" source="OuQsD5aO7t_rfvwNeKst-91" target="OuQsD5aO7t_rfvwNeKst-97" edge="1">
          <mxGeometry relative="1" as="geometry" />
        </mxCell>
        <mxCell id="OuQsD5aO7t_rfvwNeKst-107" style="edgeStyle=elbowEdgeStyle;rounded=1;orthogonalLoop=1;jettySize=auto;html=1;exitX=1;exitY=0.5;exitDx=0;exitDy=0;entryX=0;entryY=1;entryDx=0;entryDy=0;fontFamily=Lucida Console;fontSize=14;" parent="1" source="OuQsD5aO7t_rfvwNeKst-91" target="OuQsD5aO7t_rfvwNeKst-96" edge="1">
          <mxGeometry relative="1" as="geometry" />
        </mxCell>
        <mxCell id="OuQsD5aO7t_rfvwNeKst-108" style="edgeStyle=elbowEdgeStyle;rounded=1;orthogonalLoop=1;jettySize=auto;html=1;exitX=1;exitY=0.5;exitDx=0;exitDy=0;entryX=0;entryY=1;entryDx=0;entryDy=0;fontFamily=Lucida Console;fontSize=14;" parent="1" source="OuQsD5aO7t_rfvwNeKst-91" target="OuQsD5aO7t_rfvwNeKst-95" edge="1">
          <mxGeometry relative="1" as="geometry" />
        </mxCell>
        <mxCell id="OuQsD5aO7t_rfvwNeKst-109" style="edgeStyle=elbowEdgeStyle;rounded=1;orthogonalLoop=1;jettySize=auto;html=1;exitX=1;exitY=0.5;exitDx=0;exitDy=0;entryX=0;entryY=1;entryDx=0;entryDy=0;fontFamily=Lucida Console;fontSize=14;" parent="1" source="OuQsD5aO7t_rfvwNeKst-91" target="OuQsD5aO7t_rfvwNeKst-94" edge="1">
          <mxGeometry relative="1" as="geometry" />
        </mxCell>
        <mxCell id="OuQsD5aO7t_rfvwNeKst-91" value="Query" style="rounded=1;whiteSpace=wrap;html=1;fillColor=#f8cecc;strokeColor=#b85450;" parent="1" vertex="1">
          <mxGeometry x="276" y="827" width="120" height="26" as="geometry" />
        </mxCell>
        <mxCell id="OuQsD5aO7t_rfvwNeKst-100" style="edgeStyle=orthogonalEdgeStyle;rounded=1;orthogonalLoop=1;jettySize=auto;html=1;exitX=1;exitY=0.5;exitDx=0;exitDy=0;" parent="1" source="OuQsD5aO7t_rfvwNeKst-94" edge="1">
          <mxGeometry relative="1" as="geometry">
            <mxPoint x="500" y="615" as="targetPoint" />
          </mxGeometry>
        </mxCell>
        <mxCell id="OuQsD5aO7t_rfvwNeKst-94" value="A" style="ellipse;whiteSpace=wrap;html=1;aspect=fixed;rounded=1;" parent="1" vertex="1">
          <mxGeometry x="438" y="596" width="38" height="38" as="geometry" />
        </mxCell>
        <mxCell id="OuQsD5aO7t_rfvwNeKst-101" style="edgeStyle=orthogonalEdgeStyle;rounded=1;orthogonalLoop=1;jettySize=auto;html=1;exitX=1;exitY=0.5;exitDx=0;exitDy=0;" parent="1" source="OuQsD5aO7t_rfvwNeKst-95" edge="1">
          <mxGeometry relative="1" as="geometry">
            <mxPoint x="500" y="659" as="targetPoint" />
          </mxGeometry>
        </mxCell>
        <mxCell id="OuQsD5aO7t_rfvwNeKst-95" value="A" style="ellipse;whiteSpace=wrap;html=1;aspect=fixed;rounded=1;" parent="1" vertex="1">
          <mxGeometry x="438" y="640" width="38" height="38" as="geometry" />
        </mxCell>
        <mxCell id="OuQsD5aO7t_rfvwNeKst-102" style="edgeStyle=orthogonalEdgeStyle;rounded=1;orthogonalLoop=1;jettySize=auto;html=1;exitX=1;exitY=0.5;exitDx=0;exitDy=0;" parent="1" source="OuQsD5aO7t_rfvwNeKst-96" edge="1">
          <mxGeometry relative="1" as="geometry">
            <mxPoint x="500" y="703" as="targetPoint" />
          </mxGeometry>
        </mxCell>
        <mxCell id="OuQsD5aO7t_rfvwNeKst-96" value="A" style="ellipse;whiteSpace=wrap;html=1;aspect=fixed;rounded=1;" parent="1" vertex="1">
          <mxGeometry x="438" y="684" width="38" height="38" as="geometry" />
        </mxCell>
        <mxCell id="OuQsD5aO7t_rfvwNeKst-103" style="edgeStyle=orthogonalEdgeStyle;rounded=1;orthogonalLoop=1;jettySize=auto;html=1;exitX=1;exitY=0.5;exitDx=0;exitDy=0;" parent="1" source="OuQsD5aO7t_rfvwNeKst-97" edge="1">
          <mxGeometry relative="1" as="geometry">
            <mxPoint x="500" y="747" as="targetPoint" />
          </mxGeometry>
        </mxCell>
        <mxCell id="OuQsD5aO7t_rfvwNeKst-97" value="A" style="ellipse;whiteSpace=wrap;html=1;aspect=fixed;rounded=1;" parent="1" vertex="1">
          <mxGeometry x="438" y="728" width="38" height="38" as="geometry" />
        </mxCell>
        <mxCell id="OuQsD5aO7t_rfvwNeKst-104" style="edgeStyle=orthogonalEdgeStyle;rounded=1;orthogonalLoop=1;jettySize=auto;html=1;exitX=1;exitY=0.5;exitDx=0;exitDy=0;" parent="1" source="OuQsD5aO7t_rfvwNeKst-98" edge="1">
          <mxGeometry relative="1" as="geometry">
            <mxPoint x="500" y="791" as="targetPoint" />
          </mxGeometry>
        </mxCell>
        <mxCell id="OuQsD5aO7t_rfvwNeKst-98" value="A" style="ellipse;whiteSpace=wrap;html=1;aspect=fixed;rounded=1;" parent="1" vertex="1">
          <mxGeometry x="438" y="772" width="38" height="38" as="geometry" />
        </mxCell>
        <mxCell id="OuQsD5aO7t_rfvwNeKst-99" value="&lt;font style=&quot;font-size: 14px&quot; face=&quot;Lucida Console&quot;&gt;softmax&lt;/font&gt;" style="rounded=1;whiteSpace=wrap;html=1;direction=north;flipV=1;flipH=1;rotation=90;" parent="1" vertex="1">
          <mxGeometry x="412" y="686" width="209" height="36" as="geometry" />
        </mxCell>
        <mxCell id="OuQsD5aO7t_rfvwNeKst-140" style="edgeStyle=elbowEdgeStyle;rounded=1;orthogonalLoop=1;jettySize=auto;html=1;exitX=1;exitY=0;exitDx=0;exitDy=0;entryX=0;entryY=0.5;entryDx=0;entryDy=0;fontFamily=Lucida Console;fontSize=18;" parent="1" source="OuQsD5aO7t_rfvwNeKst-110" target="OuQsD5aO7t_rfvwNeKst-131" edge="1">
          <mxGeometry relative="1" as="geometry" />
        </mxCell>
        <mxCell id="OuQsD5aO7t_rfvwNeKst-110" value="X" style="ellipse;whiteSpace=wrap;html=1;aspect=fixed;rounded=1;" parent="1" vertex="1">
          <mxGeometry x="579" y="596" width="38" height="38" as="geometry" />
        </mxCell>
        <mxCell id="OuQsD5aO7t_rfvwNeKst-139" style="edgeStyle=elbowEdgeStyle;rounded=1;orthogonalLoop=1;jettySize=auto;html=1;exitX=1;exitY=0;exitDx=0;exitDy=0;entryX=0;entryY=0.5;entryDx=0;entryDy=0;fontFamily=Lucida Console;fontSize=18;" parent="1" source="OuQsD5aO7t_rfvwNeKst-112" target="OuQsD5aO7t_rfvwNeKst-131" edge="1">
          <mxGeometry relative="1" as="geometry" />
        </mxCell>
        <mxCell id="OuQsD5aO7t_rfvwNeKst-112" value="X" style="ellipse;whiteSpace=wrap;html=1;aspect=fixed;rounded=1;" parent="1" vertex="1">
          <mxGeometry x="579" y="640" width="37" height="37" as="geometry" />
        </mxCell>
        <mxCell id="OuQsD5aO7t_rfvwNeKst-134" style="edgeStyle=elbowEdgeStyle;rounded=1;orthogonalLoop=1;jettySize=auto;html=1;exitX=1;exitY=0;exitDx=0;exitDy=0;entryX=0;entryY=0.5;entryDx=0;entryDy=0;fontFamily=Lucida Console;fontSize=18;" parent="1" source="OuQsD5aO7t_rfvwNeKst-113" target="OuQsD5aO7t_rfvwNeKst-131" edge="1">
          <mxGeometry relative="1" as="geometry" />
        </mxCell>
        <mxCell id="OuQsD5aO7t_rfvwNeKst-113" value="X" style="ellipse;whiteSpace=wrap;html=1;aspect=fixed;rounded=1;" parent="1" vertex="1">
          <mxGeometry x="579" y="772" width="38" height="38" as="geometry" />
        </mxCell>
        <mxCell id="OuQsD5aO7t_rfvwNeKst-135" style="edgeStyle=elbowEdgeStyle;rounded=1;orthogonalLoop=1;jettySize=auto;html=1;exitX=1;exitY=0;exitDx=0;exitDy=0;entryX=0;entryY=0.5;entryDx=0;entryDy=0;fontFamily=Lucida Console;fontSize=18;" parent="1" source="OuQsD5aO7t_rfvwNeKst-114" target="OuQsD5aO7t_rfvwNeKst-131" edge="1">
          <mxGeometry relative="1" as="geometry" />
        </mxCell>
        <mxCell id="OuQsD5aO7t_rfvwNeKst-114" value="X" style="ellipse;whiteSpace=wrap;html=1;aspect=fixed;rounded=1;" parent="1" vertex="1">
          <mxGeometry x="579" y="728" width="38" height="38" as="geometry" />
        </mxCell>
        <mxCell id="OuQsD5aO7t_rfvwNeKst-137" style="edgeStyle=elbowEdgeStyle;rounded=1;orthogonalLoop=1;jettySize=auto;html=1;exitX=1;exitY=0;exitDx=0;exitDy=0;entryX=0;entryY=0.5;entryDx=0;entryDy=0;fontFamily=Lucida Console;fontSize=18;" parent="1" source="OuQsD5aO7t_rfvwNeKst-115" target="OuQsD5aO7t_rfvwNeKst-131" edge="1">
          <mxGeometry relative="1" as="geometry" />
        </mxCell>
        <mxCell id="OuQsD5aO7t_rfvwNeKst-115" value="X" style="ellipse;whiteSpace=wrap;html=1;aspect=fixed;rounded=1;" parent="1" vertex="1">
          <mxGeometry x="579" y="684" width="38" height="38" as="geometry" />
        </mxCell>
        <mxCell id="OuQsD5aO7t_rfvwNeKst-122" value="" style="endArrow=classic;html=1;rounded=1;fontFamily=Lucida Console;fontSize=14;" parent="1" edge="1">
          <mxGeometry width="50" height="50" relative="1" as="geometry">
            <mxPoint x="535" y="614.5" as="sourcePoint" />
            <mxPoint x="575" y="614.5" as="targetPoint" />
          </mxGeometry>
        </mxCell>
        <mxCell id="OuQsD5aO7t_rfvwNeKst-127" value="" style="endArrow=classic;html=1;rounded=1;fontFamily=Lucida Console;fontSize=14;" parent="1" edge="1">
          <mxGeometry width="50" height="50" relative="1" as="geometry">
            <mxPoint x="535" y="658.92" as="sourcePoint" />
            <mxPoint x="575" y="658.92" as="targetPoint" />
          </mxGeometry>
        </mxCell>
        <mxCell id="OuQsD5aO7t_rfvwNeKst-128" value="" style="endArrow=classic;html=1;rounded=1;fontFamily=Lucida Console;fontSize=14;" parent="1" edge="1">
          <mxGeometry width="50" height="50" relative="1" as="geometry">
            <mxPoint x="535" y="703.92" as="sourcePoint" />
            <mxPoint x="575" y="703.92" as="targetPoint" />
          </mxGeometry>
        </mxCell>
        <mxCell id="OuQsD5aO7t_rfvwNeKst-129" value="" style="endArrow=classic;html=1;rounded=1;fontFamily=Lucida Console;fontSize=14;" parent="1" edge="1">
          <mxGeometry width="50" height="50" relative="1" as="geometry">
            <mxPoint x="535" y="746.92" as="sourcePoint" />
            <mxPoint x="575" y="746.92" as="targetPoint" />
          </mxGeometry>
        </mxCell>
        <mxCell id="OuQsD5aO7t_rfvwNeKst-130" value="" style="endArrow=classic;html=1;rounded=1;fontFamily=Lucida Console;fontSize=14;" parent="1" edge="1">
          <mxGeometry width="50" height="50" relative="1" as="geometry">
            <mxPoint x="535" y="790.92" as="sourcePoint" />
            <mxPoint x="575" y="790.92" as="targetPoint" />
          </mxGeometry>
        </mxCell>
        <mxCell id="OuQsD5aO7t_rfvwNeKst-132" style="edgeStyle=elbowEdgeStyle;rounded=1;orthogonalLoop=1;jettySize=auto;html=1;exitX=1;exitY=0.5;exitDx=0;exitDy=0;entryX=0;entryY=0.5;entryDx=0;entryDy=0;fontFamily=Lucida Console;fontSize=18;" parent="1" source="OuQsD5aO7t_rfvwNeKst-131" target="OuQsD5aO7t_rfvwNeKst-88" edge="1">
          <mxGeometry relative="1" as="geometry" />
        </mxCell>
        <mxCell id="OuQsD5aO7t_rfvwNeKst-131" value="&lt;font style=&quot;font-size: 18px&quot;&gt;&lt;b&gt;+&lt;/b&gt;&lt;/font&gt;" style="ellipse;whiteSpace=wrap;html=1;aspect=fixed;rounded=1;" parent="1" vertex="1">
          <mxGeometry x="649" y="517" width="38" height="38" as="geometry" />
        </mxCell>
        <mxCell id="OuQsD5aO7t_rfvwNeKst-141" style="edgeStyle=orthogonalEdgeStyle;rounded=1;orthogonalLoop=1;jettySize=auto;html=1;exitX=1;exitY=0.5;exitDx=0;exitDy=0;entryX=0;entryY=0.5;entryDx=0;entryDy=0;" parent="1" source="OuQsD5aO7t_rfvwNeKst-142" target="OuQsD5aO7t_rfvwNeKst-146" edge="1">
          <mxGeometry relative="1" as="geometry" />
        </mxCell>
        <mxCell id="OuQsD5aO7t_rfvwNeKst-142" value="RNN" style="rounded=1;whiteSpace=wrap;html=1;fillColor=#dae8fc;strokeColor=#6c8ebf;" parent="1" vertex="1">
          <mxGeometry x="251" y="-732" width="120" height="26" as="geometry" />
        </mxCell>
        <mxCell id="OuQsD5aO7t_rfvwNeKst-143" style="edgeStyle=orthogonalEdgeStyle;rounded=1;orthogonalLoop=1;jettySize=auto;html=1;exitX=0.5;exitY=0;exitDx=0;exitDy=0;entryX=0.5;entryY=1;entryDx=0;entryDy=0;" parent="1" source="OuQsD5aO7t_rfvwNeKst-144" target="OuQsD5aO7t_rfvwNeKst-142" edge="1">
          <mxGeometry relative="1" as="geometry" />
        </mxCell>
        <mxCell id="OuQsD5aO7t_rfvwNeKst-144" value="Embedding" style="rounded=1;whiteSpace=wrap;html=1;" parent="1" vertex="1">
          <mxGeometry x="251" y="-668" width="120" height="26" as="geometry" />
        </mxCell>
        <mxCell id="OuQsD5aO7t_rfvwNeKst-145" style="edgeStyle=orthogonalEdgeStyle;rounded=1;orthogonalLoop=1;jettySize=auto;html=1;exitX=0.5;exitY=0;exitDx=0;exitDy=0;entryX=0.5;entryY=1;entryDx=0;entryDy=0;" parent="1" source="OuQsD5aO7t_rfvwNeKst-146" target="OuQsD5aO7t_rfvwNeKst-149" edge="1">
          <mxGeometry relative="1" as="geometry" />
        </mxCell>
        <mxCell id="OuQsD5aO7t_rfvwNeKst-146" value="RNN" style="rounded=1;whiteSpace=wrap;html=1;fillColor=#dae8fc;strokeColor=#6c8ebf;" parent="1" vertex="1">
          <mxGeometry x="463" y="-732" width="120" height="26" as="geometry" />
        </mxCell>
        <mxCell id="OuQsD5aO7t_rfvwNeKst-147" style="edgeStyle=orthogonalEdgeStyle;rounded=1;orthogonalLoop=1;jettySize=auto;html=1;exitX=0.5;exitY=0;exitDx=0;exitDy=0;entryX=0.5;entryY=1;entryDx=0;entryDy=0;" parent="1" source="OuQsD5aO7t_rfvwNeKst-148" target="OuQsD5aO7t_rfvwNeKst-146" edge="1">
          <mxGeometry relative="1" as="geometry" />
        </mxCell>
        <mxCell id="OuQsD5aO7t_rfvwNeKst-148" value="Embedding" style="rounded=1;whiteSpace=wrap;html=1;" parent="1" vertex="1">
          <mxGeometry x="463" y="-668" width="120" height="26" as="geometry" />
        </mxCell>
        <mxCell id="OuQsD5aO7t_rfvwNeKst-149" value="Dense" style="rounded=1;whiteSpace=wrap;html=1;" parent="1" vertex="1">
          <mxGeometry x="463" y="-796" width="120" height="26" as="geometry" />
        </mxCell>
        <mxCell id="OuQsD5aO7t_rfvwNeKst-150" value="n" style="text;html=1;align=center;verticalAlign=middle;resizable=0;points=[];autosize=1;strokeColor=none;fillColor=none;rounded=1;" parent="1" vertex="1">
          <mxGeometry x="207" y="-731" width="16" height="18" as="geometry" />
        </mxCell>
        <mxCell id="OuQsD5aO7t_rfvwNeKst-151" value="n" style="text;html=1;align=center;verticalAlign=middle;resizable=0;points=[];autosize=1;strokeColor=none;fillColor=none;rounded=1;" parent="1" vertex="1">
          <mxGeometry x="601" y="-731" width="16" height="18" as="geometry" />
        </mxCell>
        <mxCell id="OuQsD5aO7t_rfvwNeKst-152" value="" style="endArrow=classic;html=1;rounded=1;" parent="1" edge="1">
          <mxGeometry width="50" height="50" relative="1" as="geometry">
            <mxPoint x="310.5" y="-568" as="sourcePoint" />
            <mxPoint x="310.5" y="-642" as="targetPoint" />
          </mxGeometry>
        </mxCell>
        <mxCell id="OuQsD5aO7t_rfvwNeKst-153" value="sources" style="text;html=1;align=center;verticalAlign=middle;resizable=0;points=[];autosize=1;strokeColor=none;fillColor=none;rounded=1;" parent="1" vertex="1">
          <mxGeometry x="307" y="-607" width="52" height="18" as="geometry" />
        </mxCell>
        <mxCell id="OuQsD5aO7t_rfvwNeKst-154" value="" style="endArrow=classic;html=1;rounded=1;" parent="1" edge="1">
          <mxGeometry width="50" height="50" relative="1" as="geometry">
            <mxPoint x="522.5" y="-568" as="sourcePoint" />
            <mxPoint x="522.5" y="-642" as="targetPoint" />
          </mxGeometry>
        </mxCell>
        <mxCell id="OuQsD5aO7t_rfvwNeKst-155" value="targets" style="text;html=1;align=center;verticalAlign=middle;resizable=0;points=[];autosize=1;strokeColor=none;fillColor=none;rounded=1;" parent="1" vertex="1">
          <mxGeometry x="522" y="-607" width="47" height="18" as="geometry" />
        </mxCell>
        <mxCell id="OuQsD5aO7t_rfvwNeKst-156" value="Encoder" style="text;html=1;align=center;verticalAlign=middle;resizable=0;points=[];autosize=1;strokeColor=none;fillColor=none;rounded=1;" parent="1" vertex="1">
          <mxGeometry x="282" y="-776" width="55" height="18" as="geometry" />
        </mxCell>
        <mxCell id="OuQsD5aO7t_rfvwNeKst-164" style="edgeStyle=orthogonalEdgeStyle;rounded=0;orthogonalLoop=1;jettySize=auto;html=1;exitX=0.75;exitY=0;exitDx=0;exitDy=0;entryX=0.25;entryY=1;entryDx=0;entryDy=0;fontFamily=Lucida Console;fontSize=18;elbow=vertical;" parent="1" source="OuQsD5aO7t_rfvwNeKst-159" target="OuQsD5aO7t_rfvwNeKst-4" edge="1">
          <mxGeometry relative="1" as="geometry">
            <Array as="points">
              <mxPoint x="439" y="-332" />
              <mxPoint x="506" y="-332" />
            </Array>
          </mxGeometry>
        </mxCell>
        <mxCell id="OuQsD5aO7t_rfvwNeKst-159" value="Attention" style="rounded=1;whiteSpace=wrap;html=1;fillColor=#dae8fc;strokeColor=#6c8ebf;" parent="1" vertex="1">
          <mxGeometry x="371" y="-314" width="91" height="26" as="geometry" />
        </mxCell>
        <mxCell id="OuQsD5aO7t_rfvwNeKst-187" style="edgeStyle=elbowEdgeStyle;rounded=0;orthogonalLoop=1;jettySize=auto;elbow=vertical;html=1;exitX=0.5;exitY=0;exitDx=0;exitDy=0;entryX=0.5;entryY=1;entryDx=0;entryDy=0;fontFamily=Lucida Console;fontSize=12;fontColor=#000000;" parent="1" source="OuQsD5aO7t_rfvwNeKst-168" target="OuQsD5aO7t_rfvwNeKst-185" edge="1">
          <mxGeometry relative="1" as="geometry" />
        </mxCell>
        <mxCell id="OuQsD5aO7t_rfvwNeKst-168" value="&lt;font color=&quot;#000000&quot; face=&quot;Lucida Console&quot;&gt;self-attention&lt;/font&gt;" style="rounded=1;whiteSpace=wrap;html=1;fillColor=#1ba1e2;strokeColor=#000000;fontColor=#ffffff;strokeWidth=2;" parent="1" vertex="1">
          <mxGeometry x="566" y="1049.5" width="120" height="26" as="geometry" />
        </mxCell>
        <mxCell id="OuQsD5aO7t_rfvwNeKst-178" style="edgeStyle=elbowEdgeStyle;rounded=0;orthogonalLoop=1;jettySize=auto;elbow=vertical;html=1;exitX=0.5;exitY=0;exitDx=0;exitDy=0;entryX=0.5;entryY=1;entryDx=0;entryDy=0;fontFamily=Lucida Console;fontSize=18;fontColor=#000000;" parent="1" source="OuQsD5aO7t_rfvwNeKst-177" target="OuQsD5aO7t_rfvwNeKst-168" edge="1">
          <mxGeometry relative="1" as="geometry" />
        </mxCell>
        <mxCell id="OuQsD5aO7t_rfvwNeKst-180" style="edgeStyle=elbowEdgeStyle;rounded=0;orthogonalLoop=1;jettySize=auto;elbow=vertical;html=1;exitX=0.5;exitY=0;exitDx=0;exitDy=0;entryX=0.75;entryY=1;entryDx=0;entryDy=0;fontFamily=Lucida Console;fontSize=18;fontColor=#000000;" parent="1" source="OuQsD5aO7t_rfvwNeKst-177" target="OuQsD5aO7t_rfvwNeKst-168" edge="1">
          <mxGeometry relative="1" as="geometry" />
        </mxCell>
        <mxCell id="OuQsD5aO7t_rfvwNeKst-181" style="edgeStyle=elbowEdgeStyle;rounded=0;orthogonalLoop=1;jettySize=auto;elbow=vertical;html=1;exitX=0.5;exitY=0;exitDx=0;exitDy=0;entryX=0.25;entryY=1;entryDx=0;entryDy=0;fontFamily=Lucida Console;fontSize=18;fontColor=#000000;" parent="1" source="OuQsD5aO7t_rfvwNeKst-177" target="OuQsD5aO7t_rfvwNeKst-168" edge="1">
          <mxGeometry relative="1" as="geometry" />
        </mxCell>
        <mxCell id="OuQsD5aO7t_rfvwNeKst-177" value="" style="rounded=0;whiteSpace=wrap;html=1;fontFamily=Lucida Console;fontSize=18;fontColor=#000000;strokeColor=#000000;strokeWidth=2;" parent="1" vertex="1">
          <mxGeometry x="611.5" y="1102.5" width="29" height="27" as="geometry" />
        </mxCell>
        <mxCell id="OuQsD5aO7t_rfvwNeKst-182" value="&lt;font style=&quot;font-size: 12px&quot;&gt;t&lt;/font&gt;" style="text;html=1;align=center;verticalAlign=middle;resizable=0;points=[];autosize=1;strokeColor=none;fillColor=none;fontSize=18;fontFamily=Lucida Console;fontColor=#000000;" parent="1" vertex="1">
          <mxGeometry x="617.5" y="1127.5" width="17" height="28" as="geometry" />
        </mxCell>
        <mxCell id="OuQsD5aO7t_rfvwNeKst-184" value="keys&lt;br&gt;values&lt;br&gt;queries" style="text;html=1;align=center;verticalAlign=middle;resizable=0;points=[];autosize=1;strokeColor=none;fillColor=none;fontSize=12;fontFamily=Lucida Console;fontColor=#000000;" parent="1" vertex="1">
          <mxGeometry x="646" y="1095.5" width="60" height="46" as="geometry" />
        </mxCell>
        <mxCell id="OuQsD5aO7t_rfvwNeKst-185" value="" style="rounded=0;whiteSpace=wrap;html=1;fontFamily=Lucida Console;fontSize=18;fontColor=#000000;strokeColor=#000000;strokeWidth=2;" parent="1" vertex="1">
          <mxGeometry x="611.5" y="998.5" width="29" height="27" as="geometry" />
        </mxCell>
        <mxCell id="OuQsD5aO7t_rfvwNeKst-188" value="outputs" style="text;html=1;align=center;verticalAlign=middle;resizable=0;points=[];autosize=1;strokeColor=none;fillColor=none;fontSize=12;fontFamily=Lucida Console;fontColor=#000000;" parent="1" vertex="1">
          <mxGeometry x="640.5" y="1003" width="60" height="18" as="geometry" />
        </mxCell>
        <mxCell id="OuQsD5aO7t_rfvwNeKst-189" value="Embedding" style="rounded=1;whiteSpace=wrap;html=1;fillColor=#b1ddf0;strokeColor=#10739e;" parent="1" vertex="1">
          <mxGeometry x="254" y="1125" width="120" height="26" as="geometry" />
        </mxCell>
        <mxCell id="OuQsD5aO7t_rfvwNeKst-190" value="position&lt;br&gt;encoding" style="rounded=0;whiteSpace=wrap;html=1;fontFamily=Lucida Console;fontSize=12;fontColor=#000000;strokeColor=#000000;strokeWidth=2;" parent="1" vertex="1">
          <mxGeometry x="124" y="1047" width="120" height="60" as="geometry" />
        </mxCell>
        <mxCell id="rEBYA3n-SiQ-i2RHLLmR-1" value="" style="rounded=0;whiteSpace=wrap;html=1;" parent="1" vertex="1">
          <mxGeometry x="276" y="963" width="120" height="60" as="geometry" />
        </mxCell>
        <mxCell id="mworAVA3aE0MepG_Bpgk-1" value="Text" style="text;html=1;align=center;verticalAlign=middle;resizable=0;points=[];autosize=1;strokeColor=none;fillColor=none;" vertex="1" parent="1">
          <mxGeometry x="96" y="-920" width="40" height="26" as="geometry" />
        </mxCell>
      </root>
    </mxGraphModel>
  </diagram>
</mxfile>
